<svg xmlns="http://www.w3.org/2000/svg" version="1.0" width="739.000000pt" height="542.000000pt" viewBox="0 0 739.000000 542.000000" preserveAspectRatio="xMidYMid meet">

<g transform="translate(0.000000,542.000000) scale(0.100000,-0.100000)" fill="#000000" stroke="none">
<path d="M3588 3553 l-155 -458 -509 -5 -509 -5 405 -283 c223 -156 407 -287 408 -293 2 -5 -65 -212 -149 -460 -83 -247 -150 -452 -147 -455 3 -3 187 122 408 276 221 155 407 279 414 277 6 -3 187 -127 401 -277 215 -150 396 -275 404 -278 11 -4 13 -1 7 13 -26 68 -307 907 -304 909 2 2 180 126 396 276 215 150 390 275 388 277 -7 7 -796 -548 -796 -560 0 -7 67 -210 150 -452 82 -242 148 -440 147 -442 -1 -1 -182 124 -402 277 l-400 279 -30 -23 c-107 -80 -757 -527 -761 -524 -2 3 63 205 146 448 83 244 147 447 143 450 -5 4 -185 130 -402 281 l-394 274 498 5 498 5 152 449 152 448 110 -323 c61 -178 129 -381 152 -451 l43 -128 493 0 c271 0 500 -3 509 -6 9 -3 16 -1 16 5 0 8 -142 11 -504 11 l-503 0 -153 453 c-84 248 -156 456 -160 460 -4 4 -77 -198 -162 -450z"/>
</g>
</svg>
